<svg width="78" height="65" viewBox="0 0 78 65" fill="none" xmlns="http://www.w3.org/2000/svg">
<path fill-rule="evenodd" clip-rule="evenodd" d="M44.1547 64.1713C51.0266 63.7284 57.6128 62.6204 60.8984 61.3863C69.183 58.2679 75.3092 50.3232 77.3881 39.9888C78.547 34.1807 78.0392 26.948 76.0391 20.7914C75.3092 18.5596 73.2303 14.3976 71.9441 12.6094C69.8811 9.74507 67.0715 7.08626 64.5962 5.62987C60.533 3.22424 53.7885 1.34085 46.2177 0.470191C43.5514 0.169389 34.7589 0.217009 31.6962 0.549559C22.3641 1.57895 15.9045 3.58854 11.6193 6.78546C4.69959 11.961 0.795624 20.1271 0.0808945 30.9203C-0.569366 40.6214 2.7313 50.0383 8.87337 56.052C13.539 60.6418 18.4275 62.5569 28.1568 63.6324C32.9976 64.1713 40.3773 64.4245 44.1547 64.1713ZM58.0706 36.7286C58.2422 36.837 58.4059 36.9465 58.5612 37.057C59.0562 37.4053 59.7073 38.0276 60.0325 38.4507C60.8527 39.5211 61.2432 40.8649 60.8396 41.3255C60.7612 41.4248 59.8627 41.8355 58.8603 42.2343C53.1443 44.5118 47.5969 47.3492 44.6668 49.5025C43.6509 50.2451 42.4315 46.2771 41.3941 42.4401C40.0027 42.4902 38.4257 42.4981 36.9839 42.464C36.0442 46.4997 34.9211 50.7801 34.093 50.0998C31.3973 47.8722 25.7982 44.9225 19.2745 42.2836C16.8916 41.3255 16.8394 41.2756 17.113 40.1303C17.3892 38.9617 18.3168 37.8342 19.8389 36.8163C19.7339 36.7163 19.6303 36.615 19.5281 36.5122C16.4594 33.4492 14.7946 29.0244 13.7936 21.2464C13.5073 19.0274 13.1956 15.8133 13.0783 13.7454L13 12.4848L13.7936 14.0482C14.4046 15.2582 14.7431 15.7747 15.2758 16.2666C16.5109 17.4387 18.5917 18.246 24.1959 19.7336C27.4335 20.5908 28.4351 20.9562 29.813 21.7882C32.4918 23.4142 34.1169 25.3684 36.3666 29.6421C36.9515 30.7389 37.6147 31.8358 37.8358 32.0501C38.2127 32.4282 38.3301 32.4661 39.0063 32.4661C39.6825 32.4661 39.7992 32.4282 40.1638 32.0628C40.3848 31.8484 41.048 30.7516 41.6329 29.6421C43.9864 25.2173 45.5338 23.3896 48.3684 21.7003C49.6818 20.9189 50.8262 20.503 53.895 19.7336C59.0309 18.4477 61.3067 17.5778 62.607 16.431C63.231 15.8892 63.4782 15.5231 64.1675 14.1367C64.6226 13.2289 64.9995 12.5985 64.9995 12.7376C65.0126 13.1536 64.7524 16.4063 64.5444 18.4736C63.8681 25.1414 62.8541 29.4025 61.1639 32.6046C60.3335 34.1787 59.3106 35.5488 58.0706 36.7286ZM19.8389 36.8163C20.1809 36.5876 20.5528 36.3645 20.9541 36.1476C24.0142 34.4924 29.7177 33.0238 34.8087 32.6006C36.854 32.4271 41.6328 32.4521 43.6644 32.6512C49.4943 33.2284 55.0324 34.8093 58.0706 36.7286C54.9411 39.7062 50.4292 41.4721 44.1429 42.2481C43.4369 42.3373 42.4711 42.4013 41.3941 42.4401C41.2229 41.8066 41.0565 41.1767 40.8969 40.5722C40.1278 37.659 39.5141 35.3346 39.2499 36.0366C39.1585 36.2857 39.0416 36.4848 39.0024 36.4848C38.9502 36.4848 38.8333 36.2482 38.7288 35.9617C38.5709 35.4948 38.0931 37.5985 37.4748 40.321L37.4748 40.3211C37.3192 41.0065 37.1546 41.7312 36.9839 42.464C35.595 42.4311 34.3316 42.3592 33.4804 42.2481C27.2315 41.4559 22.9155 39.7438 19.8389 36.8163Z" fill="white"/>
</svg>
