<svg width="50" height="41" viewBox="0 0 50 41" fill="none" xmlns="http://www.w3.org/2000/svg">
<path fill-rule="evenodd" clip-rule="evenodd" d="M28.3043 40.9368C32.7094 40.653 36.9313 39.9433 39.0374 39.1526C44.3481 37.1549 48.2751 32.0654 49.6078 25.4449C50.3506 21.7241 50.0251 17.0906 48.743 13.1465C48.2751 11.7168 46.9425 9.05049 46.118 7.90496C44.7956 6.06997 42.9945 4.36667 41.4078 3.43367C38.8032 1.89257 34.4798 0.686022 29.6267 0.128255C27.9176 -0.064447 22.2814 -0.0339401 20.3181 0.179099C14.336 0.838556 10.1952 2.12595 7.44826 4.17397C3.01256 7.48956 0.510017 12.721 0.051857 19.6354C-0.364979 25.8501 1.75083 31.8828 5.68806 35.7353C8.67886 38.6757 11.8125 39.9026 18.0492 40.5915C21.1523 40.9368 25.8829 41.099 28.3043 40.9368ZM37.2247 23.3563C37.3348 23.4258 37.4397 23.4959 37.5392 23.5667C37.8565 23.7898 38.2739 24.1884 38.4823 24.4595C39.0081 25.1453 39.2584 26.0061 38.9997 26.3012C38.9495 26.3648 38.3735 26.6279 37.7309 26.8834C34.0669 28.3424 30.5108 30.1601 28.6325 31.5395C27.9813 32.0153 27.1997 29.4733 26.5347 27.0152C25.6427 27.0473 24.6319 27.0524 23.7077 27.0305C23.1053 29.6159 22.3853 32.358 21.8545 31.9222C20.1265 30.4952 16.5373 28.6055 12.3554 26.915C10.828 26.3012 10.7945 26.2692 10.9699 25.5355C11.1469 24.7869 11.7415 24.0646 12.7173 23.4125C12.6499 23.3484 12.5835 23.2835 12.518 23.2177C10.5509 21.2554 9.4837 18.4208 8.84205 13.438C8.65855 12.0165 8.45874 9.95743 8.38349 8.63266L8.33333 7.82508L8.84205 8.82666C9.23373 9.60184 9.45068 9.93272 9.79219 10.2478C10.5839 10.9987 11.9178 11.5159 15.5102 12.4689C17.5856 13.018 18.2277 13.2521 19.1109 13.7851C20.8281 14.8268 21.8698 16.0787 23.3119 18.8165C23.6869 19.5192 24.112 20.2218 24.2537 20.3591C24.4953 20.6013 24.5706 20.6256 25.004 20.6256C25.4375 20.6256 25.5123 20.6013 25.746 20.3672C25.8877 20.2299 26.3128 19.5273 26.6878 18.8165C28.1964 15.9819 29.1883 14.811 31.0054 13.7288C31.8473 13.2282 32.5809 12.9617 34.5481 12.4689C37.8403 11.6451 39.2992 11.0878 40.1327 10.3531C40.5327 10.006 40.6911 9.77153 41.133 8.88336C41.4248 8.30177 41.6664 7.89798 41.6664 7.98709C41.6747 8.25358 41.5079 10.3373 41.3746 11.6617C40.9411 15.9333 40.2911 18.663 39.2076 20.7143C38.6754 21.7228 38.0196 22.6005 37.2247 23.3563ZM12.7173 23.4125C12.9365 23.266 13.1749 23.123 13.4321 22.9841C15.3937 21.9237 19.0498 20.9829 22.3133 20.7118C23.6243 20.6007 26.6877 20.6167 27.99 20.7442C31.7271 21.114 35.2771 22.1267 37.2247 23.3563C35.2186 25.2638 32.3264 26.3951 28.2967 26.8923C27.8441 26.9494 27.225 26.9904 26.5347 27.0152C26.4249 26.6094 26.3183 26.2059 26.216 25.8186C25.7229 23.9524 25.3295 22.4633 25.1602 22.913C25.1016 23.0725 25.0267 23.2001 25.0015 23.2001C24.9681 23.2001 24.8931 23.0485 24.8261 22.865C24.7249 22.5659 24.4187 23.9136 24.0223 25.6577L24.0223 25.6577C23.9225 26.0968 23.817 26.5611 23.7077 27.0305C22.8173 27.0095 22.0074 26.9634 21.4618 26.8923C17.4561 26.3847 14.6894 25.2879 12.7173 23.4125Z" fill="white"/>
</svg>
